<?xml version="1.0" encoding="UTF-8"?>
<!DOCTYPE svg PUBLIC "-//W3C//DTD SVG 1.1//EN" "http://www.w3.org/Graphics/SVG/1.1/DTD/svg11.dtd">
<!-- Creator: CorelDRAW 2018 (64 Bit Versão de avaliação) -->
<svg xmlns="http://www.w3.org/2000/svg" xml:space="preserve" width="200px" height="200px" version="1.1" style="shape-rendering:geometricPrecision; text-rendering:geometricPrecision; image-rendering:optimizeQuality; fill-rule:evenodd; clip-rule:evenodd"
viewBox="0 0 42.77 42.77"
 xmlns:xlink="http://www.w3.org/1999/xlink">
 <defs>
  <style type="text/css">
   <![CDATA[
    .fil0 {fill:#200606;fill-rule:nonzero}
   ]]>
  </style>
 </defs>
 <g id="Camada_x0020_1">
  <metadata id="CorelCorpID_0Corel-Layer"/>
  <g id="_2169065888800">
   <path class="fil0" d="M21.38 0c-11.81,0 -21.38,9.57 -21.38,21.38 0,11.82 9.57,21.39 21.38,21.39 11.82,0 21.39,-9.57 21.39,-21.39 -0.01,-11.8 -9.58,-21.37 -21.39,-21.38zm0 41.34c-11.02,0 -19.95,-8.93 -19.95,-19.96 0,-11.02 8.93,-19.95 19.95,-19.95 11.03,0 19.96,8.93 19.96,19.95 -0.01,11.02 -8.94,19.95 -19.96,19.96z"/>
   <path class="fil0" d="M21.38 2.85c-10.23,0 -18.53,8.3 -18.53,18.53 0,10.24 8.3,18.54 18.53,18.54 10.24,0 18.54,-8.3 18.54,-18.54 -0.01,-10.23 -8.3,-18.52 -18.54,-18.53zm0 35.64c-9.44,0 -17.1,-7.66 -17.1,-17.11 0,-9.44 7.66,-17.1 17.1,-17.1 9.45,0 17.11,7.66 17.11,17.1 -0.01,9.45 -7.66,17.1 -17.11,17.11z"/>
   <path class="fil0" d="M32.67 10.75c0,-0.06 -0.01,-0.12 -0.03,-0.17 -0.01,-0.03 -0.02,-0.05 -0.03,-0.07 -0.03,-0.08 -0.08,-0.15 -0.14,-0.22 -0.06,-0.06 -0.13,-0.11 -0.21,-0.14 -0.08,-0.03 -0.16,-0.05 -0.25,-0.06 -0.02,0 -0.05,0 -0.07,0 -0.08,0 -0.16,0.01 -0.23,0.04l-0.02 0 -25.7 10.6c-0.27,0.11 -0.45,0.38 -0.44,0.67 0.01,0.29 0.19,0.55 0.47,0.65l10.78 3.92 3.92 10.78c0.1,0.28 0.36,0.46 0.65,0.47l0.01 0c0.29,0 0.55,-0.17 0.66,-0.44l10.59 -25.71 0 -0.01c0.03,-0.08 0.04,-0.15 0.04,-0.23 0.01,-0.03 0.01,-0.05 0,-0.08zm-3.72 2.07l-11.78 11.77 -8.93 -3.25 20.71 -8.52zm-7.52 21.71l-3.25 -8.93 11.77 -11.78 -8.52 20.71z"/>
  </g>
 </g>
</svg>
