<?xml version="1.0" encoding="UTF-8"?>
<!DOCTYPE svg PUBLIC "-//W3C//DTD SVG 1.1//EN" "http://www.w3.org/Graphics/SVG/1.1/DTD/svg11.dtd">
<!-- Creator: CorelDRAW 2018 (64 Bit Versão de avaliação) -->
<svg xmlns="http://www.w3.org/2000/svg" xml:space="preserve" width="200px" height="200px" version="1.1" style="shape-rendering:geometricPrecision; text-rendering:geometricPrecision; image-rendering:optimizeQuality; fill-rule:evenodd; clip-rule:evenodd"
viewBox="0 0 2895.61 2895.61"
 xmlns:xlink="http://www.w3.org/1999/xlink">
 <defs>
  <style type="text/css">
   <![CDATA[
    .fil0 {fill:#200606;fill-rule:nonzero}
   ]]>
  </style>
 </defs>
 <g id="Camada_x0020_1">
  <metadata id="CorelCorpID_0Corel-Layer"/>
  <g id="_2169065856000">
   <path class="fil0" d="M1447.8 0c399.8,0 761.77,162.07 1023.76,424.05 261.97,261.99 424.05,623.96 424.05,1023.75 0,399.8 -162.08,761.77 -424.05,1023.74 -262.01,262.01 -623.96,424.07 -1023.76,424.07 -399.77,0 -761.76,-162.08 -1023.74,-424.07 -261.99,-261.97 -424.06,-623.96 -424.06,-1023.74 0,-399.79 162.06,-761.75 424.06,-1023.75 261.98,-261.98 623.95,-424.05 1023.74,-424.05zm952.15 495.66c-243.67,-243.65 -580.33,-394.38 -952.15,-394.38 -371.83,0 -708.47,150.73 -952.12,394.38 -243.67,243.67 -394.4,580.31 -394.4,952.14 0,371.84 150.73,708.48 394.4,952.13 243.65,243.67 580.29,394.4 952.12,394.4 371.84,0 708.48,-150.73 952.15,-394.4 243.65,-243.65 394.38,-580.29 394.38,-952.13 0,-371.81 -150.73,-708.47 -394.38,-952.14z"/>
   <path class="fil0" d="M1447.8 188.79c347.67,0 662.44,140.95 890.26,368.76 227.81,227.82 368.76,542.59 368.76,890.25 0,347.64 -140.95,662.44 -368.76,890.26 -227.82,227.81 -542.59,368.76 -890.26,368.76 -347.63,0 -662.43,-140.95 -890.25,-368.76 -227.81,-227.82 -368.76,-542.62 -368.76,-890.26 0,-347.66 140.95,-662.43 368.76,-890.25 227.82,-227.81 542.62,-368.76 890.25,-368.76zm818.65 440.37c-209.5,-209.49 -498.96,-339.09 -818.65,-339.09 -319.69,0 -609.14,129.6 -818.64,339.09 -209.49,209.5 -339.09,498.95 -339.09,818.64 0,319.69 129.6,609.15 339.09,818.65 209.5,209.49 498.95,339.09 818.64,339.09 319.69,0 609.15,-129.6 818.65,-339.09 209.49,-209.5 339.09,-498.96 339.09,-818.65 0,-319.69 -129.6,-609.14 -339.09,-818.64z"/>
   <g>
    <path class="fil0" d="M1217.93 1246.45c23.52,0 44.67,-14.3 53.39,-36.14l176.48 -441.31 176.49 441.31c8.71,21.84 29.87,36.14 53.39,36.14l402.27 0 -321.82 241.36c-18.85,14.14 -27.16,38.36 -20.97,61.09l121.53 445.67 -372.67 -331.32c-20.92,-18.59 -52.2,-19.43 -74.07,-1.94l-414.8 331.82 159.92 -439.69c8.65,-23.8 0.68,-50.45 -19.59,-65.63l-321.82 -241.36 402.27 0zm-183.49 307.73l-215.33 591.93c-10.86,29.83 4.53,62.79 34.35,73.65 18.84,6.85 39.87,3.38 55.53,-9.11l536.8 -429.52 481.01 427.5c23.74,21.07 60.06,18.92 81.13,-4.8 12.87,-14.51 17.57,-34.53 12.48,-53.24l-162.06 -594.22 428.49 -321.42c25.4,-19.04 30.52,-55.07 11.49,-80.45 -10.86,-14.47 -27.88,-22.98 -45.98,-22.98l-535.77 0 -215.38 -538.54c-8.99,-22.48 -30.56,-36.14 -53.38,-36.14l-0.39 0c-6.99,0.04 -14.07,1.37 -20.94,4.12 -14.61,5.83 -26.18,17.42 -32.01,32.02l-215.45 538.54 -535.77 0c-31.74,0 -57.48,25.72 -57.48,57.46 0,18.08 8.53,35.12 22.99,45.97l425.67 319.23z"/>
    <polygon class="fil0" points="775.05,769.9 856.33,688.63 1086.21,918.51 1004.94,999.78 "/>
    <polygon class="fil0" points="1809.45,918.44 2039.33,688.57 2120.59,769.83 1890.72,999.71 "/>
    <polygon class="fil0" points="470.84,1706.19 815.66,1706.19 815.66,1591.25 470.84,1591.25 "/>
    <polygon class="fil0" points="2079.95,1706.19 2424.76,1706.19 2424.76,1591.25 2079.95,1591.25 "/>
    <polygon class="fil0" points="1390.34,2280.88 1505.26,2280.88 1505.26,1936.06 1390.34,1936.06 "/>
   </g>
  </g>
 </g>
</svg>
