<?xml version="1.0" encoding="UTF-8"?>
<!DOCTYPE svg PUBLIC "-//W3C//DTD SVG 1.1//EN" "http://www.w3.org/Graphics/SVG/1.1/DTD/svg11.dtd">
<!-- Creator: CorelDRAW 2018 (64 Bit Versão de avaliação) -->
<svg xmlns="http://www.w3.org/2000/svg" xml:space="preserve" width="200px" height="200px" version="1.1" style="shape-rendering:geometricPrecision; text-rendering:geometricPrecision; image-rendering:optimizeQuality; fill-rule:evenodd; clip-rule:evenodd"
viewBox="0 0 86.24 86.24"
 xmlns:xlink="http://www.w3.org/1999/xlink">
 <defs>
  <style type="text/css">
   <![CDATA[
    .fil0 {fill:#200606;fill-rule:nonzero}
   ]]>
  </style>
 </defs>
 <g id="Camada_x0020_1">
  <metadata id="CorelCorpID_0Corel-Layer"/>
  <g id="_2169065889440">
   <path class="fil0" d="M70.94 45.22c1.02,1.74 1.61,3.67 1.75,5.63 0.15,1.98 -0.16,3.99 -0.93,5.88 -0.76,1.88 -1.95,3.54 -3.43,4.86 -1.49,1.31 -3.27,2.29 -5.24,2.83 -1.96,0.53 -4,0.6 -5.94,0.22 -1.95,-0.38 -3.81,-1.21 -5.43,-2.44 -1.62,-1.24 -2.9,-2.82 -3.78,-4.59 -0.88,-1.78 -1.36,-3.76 -1.36,-5.8l0 -13.26 -6.92 0 0 13.26c-0.01,2.04 -0.48,4.02 -1.36,5.79 -0.88,1.78 -2.17,3.36 -3.79,4.59 -1.62,1.23 -3.48,2.06 -5.42,2.44 -1.95,0.38 -3.98,0.31 -5.95,-0.22 -1.96,-0.54 -3.74,-1.52 -5.23,-2.83 -1.48,-1.32 -2.67,-2.98 -3.43,-4.86 -0.77,-1.88 -1.07,-3.89 -0.93,-5.87 0.14,-1.96 0.73,-3.89 1.75,-5.64l8.75 -19.95c0.28,-0.64 0.64,-1.24 1.08,-1.78 0.4,-0.51 0.86,-0.97 1.38,-1.37l1.52 -3.46c0.52,-1.2 1.44,-2.14 2.55,-2.71 1.1,-0.56 2.39,-0.76 3.68,-0.49 1.28,0.27 2.39,0.97 3.17,1.93 0.78,0.96 1.24,2.19 1.24,3.5l0.01 3.78c0.31,0.58 0.55,1.19 0.71,1.81 0.18,0.67 0.27,1.36 0.27,2.06l0 1.39 6.92 0 0 -1.39c0,-0.7 0.09,-1.39 0.26,-2.06 0.17,-0.62 0.41,-1.23 0.72,-1.81l0 -3.78c0,-1.31 0.47,-2.54 1.25,-3.5 0.78,-0.96 1.88,-1.66 3.17,-1.93 1.28,-0.27 2.58,-0.07 3.68,0.49 1.11,0.57 2.02,1.51 2.55,2.71l1.52 3.46c0.51,0.4 0.98,0.86 1.38,1.37 0.43,0.54 0.79,1.14 1.07,1.78l8.76 19.96zm-21.63 -16.69l0.01 15.27c0.76,-0.99 1.65,-1.86 2.65,-2.58 1.45,-1.06 3.12,-1.81 4.91,-2.2 1.78,-0.39 3.62,-0.39 5.37,-0.03 1.23,0.24 2.41,0.67 3.53,1.26l-6.1 -13.89c-0.2,-0.45 -0.46,-0.88 -0.77,-1.25 -0.28,-0.34 -0.59,-0.65 -0.94,-0.91l-0.14 -0.09c-0.82,-0.58 -1.78,-0.91 -2.75,-0.98 -0.97,-0.06 -1.96,0.14 -2.85,0.6 -0.9,0.47 -1.63,1.16 -2.13,1.99 -0.51,0.83 -0.79,1.8 -0.79,2.81zm5.36 -10.01c-0.45,-0.29 -0.99,-0.46 -1.55,-0.46 -0.78,0 -1.48,0.32 -2,0.83 -0.51,0.51 -0.82,1.21 -0.83,1.99l0.01 0.82c0.84,-0.55 1.78,-0.94 2.75,-1.14 0.98,-0.21 1.99,-0.23 2.98,-0.07l-0.32 -0.74c-0.23,-0.52 -0.59,-0.94 -1.04,-1.23zm-29.01 9.89c-1.72,3.95 -3.47,7.9 -5.2,11.84 1.11,-0.59 2.3,-1.01 3.52,-1.26 1.76,-0.36 3.59,-0.36 5.38,0.03 1.79,0.39 3.46,1.14 4.91,2.2 0.99,0.72 1.89,1.59 2.65,2.58l0 -15.27c0,-1.28 -0.44,-2.47 -1.21,-3.41 -0.76,-0.94 -1.83,-1.62 -3.09,-1.89 -1.25,-0.26 -2.51,-0.06 -3.59,0.49 -1.07,0.55 -1.96,1.47 -2.47,2.64l-0.9 2.05zm6.16 -10.04c-0.56,0.29 -1.02,0.76 -1.29,1.37l-0.33 0.75c1,-0.16 2.01,-0.14 2.99,0.07 0.97,0.2 1.9,0.58 2.75,1.13l0 -0.81c0,-0.67 -0.23,-1.29 -0.63,-1.78 -0.4,-0.49 -0.96,-0.85 -1.61,-0.98 -0.66,-0.14 -1.32,-0.04 -1.88,0.25zm-10.98 42.02c1.66,1.11 3.65,1.74 5.74,1.74 2.85,0 5.44,-1.16 7.31,-3.03 1.87,-1.87 3.03,-4.45 3.03,-7.3 0,-2.1 -0.63,-4.09 -1.74,-5.75 -1.11,-1.66 -2.71,-3.01 -4.64,-3.81 -1.93,-0.8 -4.01,-0.98 -5.98,-0.58 -1.96,0.39 -3.81,1.35 -5.29,2.82 -1.47,1.48 -2.44,3.33 -2.83,5.29 -0.39,1.97 -0.21,4.05 0.59,5.98 0.8,1.93 2.14,3.53 3.81,4.64zm18.82 -27.73l0 3.16 6.92 0 0 -3.16 -6.92 0zm14.25 27.73c1.66,1.11 3.65,1.74 5.74,1.74 2.86,0 5.44,-1.16 7.31,-3.03 1.87,-1.87 3.03,-4.45 3.03,-7.3 0,-2.1 -0.63,-4.09 -1.74,-5.75 -1.11,-1.66 -2.71,-3.01 -4.64,-3.81 -1.93,-0.8 -4.01,-0.98 -5.97,-0.58 -1.97,0.39 -3.82,1.35 -5.3,2.82 -1.47,1.48 -2.43,3.33 -2.83,5.29 -0.39,1.97 -0.21,4.05 0.59,5.98 0.8,1.93 2.15,3.53 3.81,4.64z"/>
   <path class="fil0" d="M43.12 0c11.91,0 22.69,4.83 30.49,12.63 7.8,7.8 12.63,18.58 12.63,30.49 0,11.91 -4.83,22.69 -12.63,30.49 -7.8,7.8 -18.58,12.63 -30.49,12.63 -11.91,0 -22.69,-4.83 -30.49,-12.63 -7.8,-7.8 -12.63,-18.58 -12.63,-30.49 0,-11.91 4.83,-22.69 12.63,-30.49 7.8,-7.8 18.58,-12.63 30.49,-12.63zm28.36 14.76c-7.26,-7.25 -17.29,-11.74 -28.36,-11.74 -11.07,0 -21.1,4.49 -28.36,11.74 -7.25,7.26 -11.74,17.29 -11.74,28.36 0,11.07 4.49,21.1 11.74,28.36 7.26,7.25 17.29,11.74 28.36,11.74 11.07,0 21.1,-4.49 28.36,-11.74 7.25,-7.26 11.74,-17.29 11.74,-28.36 0,-11.07 -4.49,-21.1 -11.74,-28.36z"/>
   <path class="fil0" d="M43.12 5.62c10.35,0 19.73,4.2 26.51,10.99 6.79,6.78 10.99,16.16 10.99,26.51 0,10.35 -4.2,19.73 -10.99,26.51 -6.78,6.79 -16.16,10.99 -26.51,10.99 -10.35,0 -19.73,-4.2 -26.51,-10.99 -6.79,-6.78 -10.99,-16.16 -10.99,-26.51 0,-10.35 4.2,-19.73 10.99,-26.51 6.78,-6.79 16.16,-10.99 26.51,-10.99zm24.38 13.12c-6.24,-6.24 -14.86,-10.1 -24.38,-10.1 -9.52,0 -18.14,3.86 -24.38,10.1 -6.24,6.24 -10.1,14.86 -10.1,24.38 0,9.52 3.86,18.14 10.1,24.38 6.24,6.24 14.86,10.1 24.38,10.1 9.52,0 18.14,-3.86 24.38,-10.1 6.24,-6.24 10.1,-14.86 10.1,-24.38 0,-9.52 -3.86,-18.14 -10.1,-24.38z"/>
  </g>
 </g>
</svg>
